# xmcd
#
# Track frame offsets:
#	150
#	15390
#	33770
#	48025
#	58872
#	72955
#	86027
#	103475
#	117970
#
# Disc length: 1758 seconds
#
# Revision: 0
# Processed by: cddbd v1.4PL0 Copyright (c) Steve Scherf et al.
# Submitted via: dBpowerAMP V4.0
#
DISCID=7106dc09
DTITLE=Ramblers - You Said Forever
DYEAR=1998
DGENRE=Country
TTITLE0=Crazy
TTITLE1=Handsome Loser
TTITLE2=You Said Forever
TTITLE3=Gimmie A Kiss
TTITLE4=I'm The King
TTITLE5=Stop You're Cryin
TTITLE6=Cowboy Drifter
TTITLE7=Owe The World To You
TTITLE8=I Want You
EXTD=
EXTT0=
EXTT1=
EXTT2=
EXTT3=
EXTT4=
EXTT5=
EXTT6=
EXTT7=
EXTT8=
PLAYORDER=
